<svg width="1280" height="680" xmlns="http://www.w3.org/2000/svg" xmlns:xlink="http://www.w3.org/1999/xlink" overflow="hidden"><defs><clipPath id="clip0"><rect x="0" y="20" width="1280" height="680"/></clipPath></defs><g clip-path="url(#clip0)" transform="matrix(1 0 0 1 0 -20)"><path d="M52.3315 59.0538C52.3315 40.1091 67.6892 24.7514 86.6341 24.7514L1295.2 24.7514C1314.14 24.7514 1329.5 40.1091 1329.5 59.0538L1329.5 668.637C1329.5 687.581 1314.14 702.939 1295.2 702.939L86.6341 702.939C67.6892 702.939 52.3315 687.581 52.3315 668.637Z" fill="#08A1DE" fill-rule="evenodd" fill-opacity="1" transform="matrix(1 0 0 1.00163 -52.3315 -4.08333)"/><path d="M462.851 137.302C462.851 123.377 474.14 112.088 488.064 112.088L702.124 112.088C716.05 112.088 727.337 123.377 727.337 137.302L727.337 660.4C727.337 674.325 716.05 685.613 702.124 685.613L488.064 685.613C474.14 685.613 462.851 674.325 462.851 660.4Z" stroke="#D9D9D9" stroke-width="6.36464" stroke-linecap="butt" stroke-linejoin="round" stroke-miterlimit="10" stroke-opacity="1" fill="#08A1DE" fill-rule="evenodd" fill-opacity="0.65098" transform="matrix(1 0 0 1.00163 -52.3315 -4.08333)"/><path d="M443.403 182.099C443.403 170.968 452.427 161.945 463.558 161.945 474.689 161.945 483.713 170.968 483.713 182.099 483.713 193.23 474.689 202.254 463.558 202.254 452.427 202.254 443.403 193.23 443.403 182.099Z" fill="#A6A6A6" fill-rule="evenodd" fill-opacity="1" transform="matrix(1 0 0 1.00163 -52.3315 -4.08333)"/><text fill="#011F3D" fill-opacity="1" font-family="Courier,Courier_MSFontService,sans-serif" font-style="normal" font-variant="normal" font-weight="400" font-stretch="normal" font-size="28" text-anchor="start" direction="ltr" writing-mode="lr-tb" unicode-bidi="normal" text-decoration="none" transform="matrix(0.707182 0 0 0.708333 453.105 179)">/configuration<tspan fill="#011F3D" fill-opacity="1" font-family="Courier,Courier_MSFontService,sans-serif" font-style="normal" font-variant="normal" font-weight="400" font-stretch="normal" font-size="28" text-anchor="start" direction="ltr" writing-mode="lr-tb" unicode-bidi="normal" text-decoration="none" x="67" y="40.9412">/certificate</tspan><tspan fill="#011F3D" fill-opacity="1" font-family="Courier,Courier_MSFontService,sans-serif" font-style="normal" font-variant="normal" font-weight="400" font-stretch="normal" font-size="28" text-anchor="start" direction="ltr" writing-mode="lr-tb" unicode-bidi="normal" text-decoration="none" x="67" y="80.4706">/edge</tspan><tspan fill="#011F3D" fill-opacity="1" font-family="Courier,Courier_MSFontService,sans-serif" font-style="normal" font-variant="normal" font-weight="400" font-stretch="normal" font-size="28" text-anchor="start" direction="ltr" writing-mode="lr-tb" unicode-bidi="normal" text-decoration="none" x="67" y="122.824">/analytics</tspan></text><path d="M443.403 338.74C443.403 327.804 452.427 318.939 463.558 318.939 474.689 318.939 483.713 327.804 483.713 338.74 483.713 349.676 474.689 358.541 463.558 358.541 452.427 358.541 443.403 349.676 443.403 338.74Z" fill="#A6A6A6" fill-rule="evenodd" fill-opacity="1" transform="matrix(1 0 0 1.00163 -52.3315 -4.08333)"/><text fill="#011F3D" fill-opacity="1" font-family="Courier,Courier_MSFontService,sans-serif" font-style="normal" font-variant="normal" font-weight="400" font-stretch="normal" font-size="28" text-anchor="start" direction="ltr" writing-mode="lr-tb" unicode-bidi="normal" text-decoration="none" transform="matrix(0.707182 0 0 0.708333 453.105 337)">/analytics<tspan fill="#011F3D" fill-opacity="1" font-family="Courier,Courier_MSFontService,sans-serif" font-style="normal" font-variant="normal" font-weight="400" font-stretch="normal" font-size="28" text-anchor="start" direction="ltr" writing-mode="lr-tb" unicode-bidi="normal" text-decoration="none" x="67" y="39.5294">/measurement</tspan><tspan fill="#011F3D" fill-opacity="1" font-family="Courier,Courier_MSFontService,sans-serif" font-style="normal" font-variant="normal" font-weight="400" font-stretch="normal" font-size="28" text-anchor="start" direction="ltr" writing-mode="lr-tb" unicode-bidi="normal" text-decoration="none" x="67" y="79.0588">/series</tspan></text><path d="M443.403 450.829C443.403 439.698 452.427 430.674 463.558 430.674 474.689 430.674 483.713 439.698 483.713 450.829 483.713 461.96 474.689 470.983 463.558 470.983 452.427 470.983 443.403 461.96 443.403 450.829Z" fill="#A6A6A6" fill-rule="evenodd" fill-opacity="1" transform="matrix(1 0 0 1.00163 -52.3315 -4.08333)"/><text fill="#011F3D" fill-opacity="1" font-family="Courier,Courier_MSFontService,sans-serif" font-style="normal" font-variant="normal" font-weight="400" font-stretch="normal" font-size="28" text-anchor="start" direction="ltr" writing-mode="lr-tb" unicode-bidi="normal" text-decoration="none" transform="matrix(0.707182 0 0 0.708333 453.105 449)">/services</text><path d="M443.403 539.227C443.403 528.096 452.427 519.072 463.558 519.072 474.689 519.072 483.713 528.096 483.713 539.227 483.713 550.358 474.689 559.381 463.558 559.381 452.427 559.381 443.403 550.358 443.403 539.227Z" fill="#D9D9D9" fill-rule="evenodd" fill-opacity="1" transform="matrix(1 0 0 1.00163 -52.3315 -4.08333)"/><text fill="#011F3D" fill-opacity="1" font-family="Courier,Courier_MSFontService,sans-serif" font-style="normal" font-variant="normal" font-weight="400" font-stretch="normal" font-size="28" text-anchor="start" direction="ltr" writing-mode="lr-tb" unicode-bidi="normal" text-decoration="none" transform="matrix(0.707182 0 0 0.708333 453.105 537)">/measurements</text><path d="M443.403 607.823C443.403 596.692 452.427 587.669 463.558 587.669 474.689 587.669 483.713 596.692 483.713 607.823 483.713 618.954 474.689 627.978 463.558 627.978 452.427 627.978 443.403 618.954 443.403 607.823Z" fill="#D9D9D9" fill-rule="evenodd" fill-opacity="1" transform="matrix(1 0 0 1.00163 -52.3315 -4.08333)"/><text fill="#011F3D" fill-opacity="1" font-family="Courier,Courier_MSFontService,sans-serif" font-style="normal" font-variant="normal" font-weight="400" font-stretch="normal" font-size="28" text-anchor="start" direction="ltr" writing-mode="lr-tb" unicode-bidi="normal" text-decoration="none" transform="matrix(0.707182 0 0 0.708333 453.105 606)">/cmd</text><path d="M799.47 137.302C799.47 123.377 810.756 112.088 824.681 112.088L1038.74 112.088C1052.67 112.088 1063.96 123.377 1063.96 137.302L1063.96 660.4C1063.96 674.325 1052.67 685.613 1038.74 685.613L824.681 685.613C810.756 685.613 799.47 674.325 799.47 660.4Z" stroke="#D9D9D9" stroke-width="6.36464" stroke-linecap="butt" stroke-linejoin="round" stroke-miterlimit="10" stroke-opacity="1" fill="#08A1DE" fill-rule="evenodd" fill-opacity="0.529412" transform="matrix(1 0 0 1.00163 -52.3315 -4.08333)"/><text fill="#011F3D" fill-opacity="1" font-family="Courier,Courier_MSFontService,sans-serif" font-style="normal" font-variant="normal" font-weight="400" font-stretch="normal" font-size="40" text-anchor="start" direction="ltr" writing-mode="lr-tb" unicode-bidi="normal" text-decoration="none" transform="matrix(-1.29907e-16 -0.708333 0.707182 -1.30119e-16 982.467 666)">thin edge processes</text><path d="M117.746 137.302C117.746 123.377 129.035 112.088 142.959 112.088L357.019 112.088C370.943 112.088 382.232 123.377 382.232 137.302L382.232 660.4C382.232 674.325 370.943 685.613 357.019 685.613L142.959 685.613C129.035 685.613 117.746 674.325 117.746 660.4Z" stroke="#D9D9D9" stroke-width="6.36464" stroke-linecap="butt" stroke-linejoin="round" stroke-miterlimit="10" stroke-opacity="1" fill="#08A1DE" fill-rule="evenodd" fill-opacity="0.65098" transform="matrix(1 0 0 1.00163 -52.3315 -4.08333)"/><text fill="#011F3D" fill-opacity="1" font-family="Courier,Courier_MSFontService,sans-serif" font-style="normal" font-variant="normal" font-weight="400" font-stretch="normal" font-size="40" text-anchor="start" direction="ltr" writing-mode="lr-tb" unicode-bidi="normal" text-decoration="none" transform="matrix(-1.29907e-16 -0.708333 0.707182 -1.30119e-16 298.558 650)">web ui</text><text fill="#011F3D" fill-opacity="1" font-family="Courier,Courier_MSFontService,sans-serif" font-style="normal" font-variant="normal" font-weight="400" font-stretch="normal" font-size="28" text-anchor="start" direction="ltr" writing-mode="lr-tb" unicode-bidi="normal" text-decoration="none" transform="matrix(0.707182 0 0 0.708333 165.908 257)">analytics<tspan fill="#011F3D" fill-opacity="1" font-family="Courier,Courier_MSFontService,sans-serif" font-style="normal" font-variant="normal" font-weight="400" font-stretch="normal" font-size="28" text-anchor="start" direction="ltr" writing-mode="lr-tb" unicode-bidi="normal" text-decoration="none" x="0.100462" y="175.059">edge</tspan><tspan fill="#011F3D" fill-opacity="1" font-family="Courier,Courier_MSFontService,sans-serif" font-style="normal" font-variant="normal" font-weight="400" font-stretch="normal" font-size="28" text-anchor="start" direction="ltr" writing-mode="lr-tb" unicode-bidi="normal" text-decoration="none" x="50.3505" y="216">setup</tspan><tspan fill="#011F3D" fill-opacity="1" font-family="Courier,Courier_MSFontService,sans-serif" font-style="normal" font-variant="normal" font-weight="400" font-stretch="normal" font-size="28" text-anchor="start" direction="ltr" writing-mode="lr-tb" unicode-bidi="normal" text-decoration="none" x="50.3505" y="255.529">control</tspan><tspan fill="#011F3D" fill-opacity="1" font-family="Courier,Courier_MSFontService,sans-serif" font-style="normal" font-variant="normal" font-weight="400" font-stretch="normal" font-size="28" text-anchor="start" direction="ltr" writing-mode="lr-tb" unicode-bidi="normal" text-decoration="none" x="0" y="371.294">cloud</tspan></text><text fill="#011F3D" fill-opacity="1" font-family="Courier,Courier_MSFontService,sans-serif" font-style="normal" font-variant="normal" font-weight="400" font-stretch="normal" font-size="40" text-anchor="start" direction="ltr" writing-mode="lr-tb" unicode-bidi="normal" text-decoration="none" transform="matrix(-1.29907e-16 -0.708333 0.707182 -1.30119e-16 653.383 657)">node</text><path d="M1084.11 603.227C1084.11 592.291 1093.13 583.425 1104.27 583.425 1115.4 583.425 1124.42 592.291 1124.42 603.227 1124.42 614.162 1115.4 623.028 1104.27 623.028 1093.13 623.028 1084.11 614.162 1084.11 603.227Z" fill="#A6A6A6" fill-rule="evenodd" fill-opacity="1" transform="matrix(1 0 0 1.00163 -52.3315 -4.08333)"/><text fill="#011F3D" fill-opacity="1" font-family="Courier,Courier_MSFontService,sans-serif" font-style="normal" font-variant="normal" font-weight="400" font-stretch="normal" font-size="28" text-anchor="start" direction="ltr" writing-mode="lr-tb" unicode-bidi="normal" text-decoration="none" transform="matrix(0.707182 0 0 0.708333 1088.11 604)">rest endpoint</text><path d="M1084.11 649.193C1084.11 638.258 1093.13 629.392 1104.27 629.392 1115.4 629.392 1124.42 638.258 1124.42 649.193 1124.42 660.129 1115.4 668.995 1104.27 668.995 1093.13 668.995 1084.11 660.129 1084.11 649.193Z" fill="#D9D9D9" fill-rule="evenodd" fill-opacity="1" transform="matrix(1 0 0 1.00163 -52.3315 -4.08333)"/><text fill="#011F3D" fill-opacity="1" font-family="Courier,Courier_MSFontService,sans-serif" font-style="normal" font-variant="normal" font-weight="400" font-stretch="normal" font-size="28" text-anchor="start" direction="ltr" writing-mode="lr-tb" unicode-bidi="normal" text-decoration="none" transform="matrix(0.707182 0 0 0.708333 1090.02 650)">socket endpoint</text><path d="M1084.11 536.044 1124.42 536.044 1124.42 576.354 1084.11 576.354Z" fill="#005371" fill-rule="nonzero" fill-opacity="1" transform="matrix(1 0 0 1.00163 -52.3315 -4.08333)"/><text fill="#011F3D" fill-opacity="1" font-family="Courier,Courier_MSFontService,sans-serif" font-style="normal" font-variant="normal" font-weight="400" font-stretch="normal" font-size="28" text-anchor="start" direction="ltr" writing-mode="lr-tb" unicode-bidi="normal" text-decoration="none" transform="matrix(0.707182 0 0 0.708333 1088.11 558)">process<tspan fill="#011F3D" fill-opacity="1" font-family="Courier,Courier_MSFontService,sans-serif" font-style="normal" font-variant="normal" font-weight="400" font-stretch="normal" font-size="28" text-anchor="start" direction="ltr" writing-mode="lr-tb" unicode-bidi="normal" text-decoration="none" x="-0.00621414" y="-67.7647">web </tspan><tspan fill="#011F3D" fill-opacity="1" font-family="Courier,Courier_MSFontService,sans-serif" font-style="normal" font-variant="normal" font-weight="400" font-stretch="normal" font-size="28" text-anchor="start" direction="ltr" writing-mode="lr-tb" unicode-bidi="normal" text-decoration="none" x="66.9938" y="-67.7647">ui</tspan></text><path d="M1084.11 494.674C1084.11 490.963 1087.12 487.956 1090.83 487.956L1117.7 487.956C1121.41 487.956 1124.42 490.963 1124.42 494.674L1124.42 521.547C1124.42 525.258 1121.41 528.265 1117.7 528.265L1090.83 528.265C1087.12 528.265 1084.11 525.258 1084.11 521.547Z" fill="#005371" fill-rule="evenodd" fill-opacity="1" transform="matrix(1 0 0 1.00163 -52.3315 -4.08333)"/><path d="M827.403 228.42 891.757 228.42 891.757 292.066 827.403 292.066Z" stroke="#D9D9D9" stroke-width="1.41436" stroke-linecap="butt" stroke-linejoin="round" stroke-miterlimit="10" stroke-opacity="1" fill="#005371" fill-rule="nonzero" fill-opacity="1" transform="matrix(1 0 0 1.00163 -52.3315 -4.08333)"/><text fill="#011F3D" fill-opacity="1" font-family="Courier,Courier_MSFontService,sans-serif" font-style="normal" font-variant="normal" font-weight="400" font-stretch="normal" font-size="28" text-anchor="start" direction="ltr" writing-mode="lr-tb" unicode-bidi="normal" text-decoration="none" transform="matrix(0.707182 0 0 0.708333 867.394 263)">mapper</text><path d="M827.403 350.055 891.757 350.055 891.757 413.702 827.403 413.702Z" stroke="#D9D9D9" stroke-width="1.41436" stroke-linecap="butt" stroke-linejoin="round" stroke-miterlimit="10" stroke-opacity="1" fill="#005371" fill-rule="nonzero" fill-opacity="1" transform="matrix(1 0 0 1.00163 -52.3315 -4.08333)"/><text fill="#011F3D" fill-opacity="1" font-family="Courier,Courier_MSFontService,sans-serif" font-style="normal" font-variant="normal" font-weight="400" font-stretch="normal" font-size="28" text-anchor="start" direction="ltr" writing-mode="lr-tb" unicode-bidi="normal" text-decoration="none" transform="matrix(0.707182 0 0 0.708333 867.394 385)">agent</text><path d="M827.403 470.983 891.757 470.983 891.757 535.337 827.403 535.337Z" stroke="#D9D9D9" stroke-width="1.41436" stroke-linecap="butt" stroke-linejoin="round" stroke-miterlimit="10" stroke-opacity="1" fill="#005371" fill-rule="nonzero" fill-opacity="1" transform="matrix(1 0 0 1.00163 -52.3315 -4.08333)"/><text fill="#011F3D" fill-opacity="1" font-family="Courier,Courier_MSFontService,sans-serif" font-style="normal" font-variant="normal" font-weight="400" font-stretch="normal" font-size="28" text-anchor="start" direction="ltr" writing-mode="lr-tb" unicode-bidi="normal" text-decoration="none" transform="matrix(0.707182 0 0 0.708333 868.696 507)">mosquitto</text><path d="M141.436 239.028C141.436 233.169 146.186 228.42 152.044 228.42L195.182 228.42C201.041 228.42 205.79 233.169 205.79 239.028L205.79 281.459C205.79 287.317 201.041 292.066 195.182 292.066L152.044 292.066C146.186 292.066 141.436 287.317 141.436 281.459Z" stroke="#D9D9D9" stroke-width="1.41436" stroke-linecap="butt" stroke-linejoin="round" stroke-miterlimit="10" stroke-opacity="1" fill="#005371" fill-rule="evenodd" fill-opacity="1" transform="matrix(1 0 0 1.00163 -52.3315 -4.08333)"/><path d="M141.436 363.492C141.436 357.633 146.186 352.884 152.044 352.884L194.475 352.884C200.333 352.884 205.083 357.633 205.083 363.492L205.083 405.923C205.083 411.781 200.333 416.53 194.475 416.53L152.044 416.53C146.186 416.53 141.436 411.781 141.436 405.923Z" fill="#005371" fill-rule="evenodd" fill-opacity="1" transform="matrix(1 0 0 1.00163 -52.3315 -4.08333)"/><path d="M141.436 496.56C141.436 490.636 146.238 485.834 152.162 485.834L195.064 485.834C200.988 485.834 205.79 490.636 205.79 496.56L205.79 539.462C205.79 545.386 200.988 550.188 195.064 550.188L152.162 550.188C146.238 550.188 141.436 545.386 141.436 539.462Z" fill="#005371" fill-rule="evenodd" fill-opacity="1" transform="matrix(1 0 0 1.00163 -52.3315 -4.08333)"/><text fill="#011F3D" fill-opacity="1" font-family="Courier,Courier_MSFontService,sans-serif" font-style="normal" font-variant="normal" font-weight="400" font-stretch="normal" font-size="40" text-anchor="start" direction="ltr" writing-mode="lr-tb" unicode-bidi="normal" text-decoration="none" transform="matrix(0.707182 0 0 0.708333 30.9279 73)">tedge-ui</text><path d="M381.525 179.801 442.126 179.801 442.126 184.398 381.525 184.398ZM381.525 188.994C377.717 188.994 374.63 185.908 374.63 182.099 374.63 178.291 377.717 175.204 381.525 175.204 385.333 175.204 388.42 178.291 388.42 182.099 388.42 185.908 385.333 188.994 381.525 188.994Z" fill="#005371" fill-rule="nonzero" fill-opacity="1" transform="matrix(1 0 0 1.00163 -52.3315 -4.08333)"/><path d="M381.525 336.796 442.126 336.796 442.126 341.392 381.525 341.392ZM381.525 345.989C377.717 345.989 374.63 342.902 374.63 339.094 374.63 335.286 377.717 332.199 381.525 332.199 385.333 332.199 388.42 335.286 388.42 339.094 388.42 342.902 385.333 345.989 381.525 345.989Z" fill="#005371" fill-rule="nonzero" fill-opacity="1" transform="matrix(1 0 0 1.00163 -52.3315 -4.08333)"/><path d="M381.525 449.238 442.126 449.238 442.126 453.834 381.525 453.834ZM381.525 458.431C377.717 458.431 374.63 455.344 374.63 451.536 374.63 447.728 377.717 444.641 381.525 444.641 385.333 444.641 388.42 447.728 388.42 451.536 388.42 455.344 385.333 458.431 381.525 458.431Z" fill="#005371" fill-rule="nonzero" fill-opacity="1" transform="matrix(1 0 0 1.00163 -52.3315 -4.08333)"/><path d="M381.525 534.099 442.126 534.099 442.126 538.696 381.525 538.696ZM381.525 543.293C377.717 543.293 374.63 540.206 374.63 536.398 374.63 532.59 377.717 529.503 381.525 529.503 385.333 529.503 388.42 532.59 388.42 536.398 388.42 540.206 385.333 543.293 381.525 543.293Z" fill="#005371" fill-rule="nonzero" fill-opacity="1" transform="matrix(1 0 0 1.00163 -52.3315 -4.08333)"/><path d="M381.525 604.818 442.126 604.818 442.126 609.414 381.525 609.414ZM381.525 614.011C377.717 614.011 374.63 610.924 374.63 607.116 374.63 603.308 377.717 600.221 381.525 600.221 385.333 600.221 388.42 603.308 388.42 607.116 388.42 610.924 385.333 614.011 381.525 614.011Z" fill="#005371" fill-rule="nonzero" fill-opacity="1" transform="matrix(1 0 0 1.00163 -52.3315 -4.08333)"/><path d="M729.459 393.37 801.627 393.37 801.627 397.967 729.459 397.967ZM729.459 402.564C725.654 402.564 722.564 399.477 722.564 395.669 722.564 391.86 725.654 388.773 729.459 388.773 733.263 388.773 736.354 391.86 736.354 395.669 736.354 399.477 733.263 402.564 729.459 402.564Z" fill="#005371" fill-rule="nonzero" fill-opacity="1" transform="matrix(1 0 0 1.00163 -52.3315 -4.08333)"/></g></svg>