<svg width="1147" height="720" xmlns="http://www.w3.org/2000/svg" xmlns:xlink="http://www.w3.org/1999/xlink" overflow="hidden"><defs><clipPath id="clip0"><rect x="66" y="0" width="1147" height="720"/></clipPath><clipPath id="clip1"><rect x="67" y="0" width="1146" height="720"/></clipPath><clipPath id="clip2"><rect x="67" y="0" width="1146" height="721"/></clipPath><clipPath id="clip3"><rect x="67" y="0" width="1146" height="721"/></clipPath><clipPath id="clip4"><rect x="67" y="0" width="1146" height="721"/></clipPath></defs><g clip-path="url(#clip0)" transform="translate(-66 0)"><g clip-path="url(#clip1)"><g clip-path="url(#clip2)"><g clip-path="url(#clip3)"><g clip-path="url(#clip4)"><path d="M59.7211 115.512C59.7211 97.1792 74.5824 82.3183 92.9148 82.3183L1171.72 82.3183C1190.06 82.3183 1204.91 97.1792 1204.91 115.512L1204.91 769.006C1204.91 787.339 1190.06 802.2 1171.72 802.2L92.9148 802.2C74.5824 802.2 59.7211 787.339 59.7211 769.006Z" fill="#F2F2F2" fill-rule="evenodd" fill-opacity="1" transform="matrix(1 0 0 1.00016 7.27887 -82.3318)"/><path d="M824.797 525.794C824.797 511.305 836.54 499.559 851.034 499.559L1101.2 499.559C1115.7 499.559 1127.44 511.305 1127.44 525.794L1127.44 748.526C1127.44 763.015 1115.7 774.761 1101.2 774.761L851.034 774.761C836.54 774.761 824.797 763.015 824.797 748.526Z" fill="#08A1DE" fill-rule="evenodd" fill-opacity="1" transform="matrix(1 0 0 1.00016 7.27887 -82.3318)"/><path d="M824.797 161.666C824.797 146.369 837.201 133.969 852.495 133.969L1099.74 133.969C1115.04 133.969 1127.44 146.369 1127.44 161.666L1127.44 396.807C1127.44 412.104 1115.04 424.504 1099.74 424.504L852.495 424.504C837.201 424.504 824.797 412.104 824.797 396.807Z" fill="#08A1DE" fill-rule="evenodd" fill-opacity="1" transform="matrix(1 0 0 1.00016 7.27887 -82.3318)"/><text fill="#011F3D" fill-opacity="1" font-family="Courier,Courier_MSFontService,sans-serif" font-style="normal" font-variant="normal" font-weight="400" font-stretch="normal" font-size="40" text-anchor="start" direction="ltr" writing-mode="lr-tb" unicode-bidi="normal" text-decoration="none" transform="matrix(0.807042 0 0 0.807175 848.451 101)">mqtt_collector</text><path d="M198.532 175.059C198.532 148.8 219.82 127.513 246.078 127.513L649.738 127.513C675.997 127.513 697.284 148.8 697.284 175.059L697.284 734.478C697.284 760.737 675.997 782.024 649.738 782.024L246.078 782.024C219.82 782.024 198.532 760.737 198.532 734.478Z" fill="#08A1DE" fill-rule="evenodd" fill-opacity="1" transform="matrix(1 0 0 1.00016 7.27887 -82.3318)"/><text fill="#011F3D" fill-opacity="1" font-family="Courier,Courier_MSFontService,sans-serif" font-style="normal" font-variant="normal" font-weight="400" font-stretch="normal" font-size="40" text-anchor="start" direction="ltr" writing-mode="lr-tb" unicode-bidi="normal" text-decoration="none" transform="matrix(0.807042 0 0 0.807175 226.971 93)">tedge-ui</text><path d="M298.606 262.289 385.766 262.289 385.766 348.642 298.606 348.642Z" fill="#005371" fill-rule="nonzero" fill-opacity="1" transform="matrix(1 0 0 1.00016 7.27887 -82.3318)"/><text fill="#011F3D" fill-opacity="1" font-family="Courier,Courier_MSFontService,sans-serif" font-style="normal" font-variant="normal" font-weight="400" font-stretch="normal" font-size="40" text-anchor="start" direction="ltr" writing-mode="lr-tb" unicode-bidi="normal" text-decoration="none" transform="matrix(0.807042 0 0 0.807175 845.642 463)">mongodb</text><path d="M2.62291 13.1144 2.62302 75.0746-2.62276 75.0746-2.62286 13.1144ZM-7.86864 15.7373 0 0 7.86869 15.7373Z" fill="#005371" fill-rule="nonzero" fill-opacity="1" transform="matrix(1 0 0 -1.00016 983.396 417.732)"/><path d="M569.368 287.509 812.506 287.509 812.506 292.755 569.368 292.755ZM809.883 282.263 825.62 290.132 809.883 298Z" fill="#005371" fill-rule="nonzero" fill-opacity="1" transform="matrix(1 0 0 1.00016 7.27887 -82.3318)"/><path d="M7.58779e-07-2.62289 426.211-2.62277 426.211 2.62301-7.58779e-07 2.62289ZM423.588-7.86854 439.326 0.000127093 423.588 7.86878Z" fill="#005371" fill-rule="nonzero" fill-opacity="1" transform="matrix(-1 0 0 1.00016 832.778 575.919)"/><path d="M561.701 267.131 605.282 267.131 605.282 573 561.701 573Z" fill="#005371" fill-rule="nonzero" fill-opacity="1" transform="matrix(1 0 0 1.00016 7.27887 -82.3318)"/><text fill="#011F3D" fill-opacity="1" font-family="Courier,Courier_MSFontService,sans-serif" font-style="normal" font-variant="normal" font-weight="400" font-stretch="normal" font-size="28" text-anchor="start" direction="ltr" writing-mode="lr-tb" unicode-bidi="normal" text-decoration="none" transform="matrix(-1.48251e-16 -0.807175 0.807042 -1.48276e-16 638.061 488)">mosquitto</text><path d="M399.284 302.843 549.284 302.843 549.284 308.088 399.284 308.088ZM401.907 313.334 386.17 305.465 401.907 297.597ZM546.661 297.597 562.399 305.465 546.661 313.334Z" fill="#005371" fill-rule="nonzero" fill-opacity="1" transform="matrix(1 0 0 1.00016 7.27887 -82.3318)"/><text fill="#011F3D" fill-opacity="1" font-family="Courier,Courier_MSFontService,sans-serif" font-style="normal" font-variant="normal" font-weight="400" font-stretch="normal" font-size="28" text-anchor="start" direction="ltr" writing-mode="lr-tb" unicode-bidi="normal" text-decoration="none" transform="matrix(0.807042 0 0 0.807175 242.779 165)">tedge-mapper-c8y</text><path d="M298.606 614.159 385.766 614.159 385.766 701.32 298.606 701.32Z" fill="#005371" fill-rule="nonzero" fill-opacity="1" transform="matrix(1 0 0 1.00016 7.27887 -82.3318)"/><text fill="#011F3D" fill-opacity="1" font-family="Courier,Courier_MSFontService,sans-serif" font-style="normal" font-variant="normal" font-weight="400" font-stretch="normal" font-size="28" text-anchor="start" direction="ltr" writing-mode="lr-tb" unicode-bidi="normal" text-decoration="none" transform="matrix(0.807042 0 0 0.807175 708.775 190)">mqtt<tspan fill="#011F3D" fill-opacity="1" font-family="Courier,Courier_MSFontService,sans-serif" font-style="normal" font-variant="normal" font-weight="400" font-stretch="normal" font-size="28" text-anchor="start" direction="ltr" writing-mode="lr-tb" unicode-bidi="normal" text-decoration="none" x="-119.011" y="458.389">socket</tspan><tspan fill="#011F3D" fill-opacity="1" font-family="Courier,Courier_MSFontService,sans-serif" font-style="normal" font-variant="normal" font-weight="400" font-stretch="normal" font-size="28" text-anchor="start" direction="ltr" writing-mode="lr-tb" unicode-bidi="normal" text-decoration="none" x="-475.879" y="410.072">node</tspan></text><path d="M298.606 406.749 385.766 406.749 385.766 493.91 298.606 493.91Z" fill="#005371" fill-rule="nonzero" fill-opacity="1" transform="matrix(1 0 0 1.00016 7.27887 -82.3318)"/><path d="M401.705 448.11 549.402 448.11 549.402 453.356 401.705 453.356ZM404.328 458.602 388.591 450.733 404.328 442.864ZM546.779 442.864 562.517 450.733 546.779 458.602Z" fill="#005371" fill-rule="nonzero" fill-opacity="1" transform="matrix(1 0 0 1.00016 7.27887 -82.3318)"/><text fill="#011F3D" fill-opacity="1" font-family="Courier,Courier_MSFontService,sans-serif" font-style="normal" font-variant="normal" font-weight="400" font-stretch="normal" font-size="28" text-anchor="start" direction="ltr" writing-mode="lr-tb" unicode-bidi="normal" text-decoration="none" transform="matrix(0.807042 0 0 0.807175 223.784 310)">tedge-mapper-collectd</text><path d="M923.256 238.885 1010.42 238.885 1010.42 326.045 923.256 326.045Z" fill="#005371" fill-rule="nonzero" fill-opacity="1" transform="matrix(1 0 0 1.00016 7.27887 -82.3318)"/><path d="M920.028 607.198C920.028 613.16 944.594 617.993 974.907 617.993 1005.22 617.993 1029.79 613.16 1029.79 607.198L1029.79 671.964C1029.79 677.925 1005.22 682.758 974.907 682.758 944.594 682.758 920.028 677.925 920.028 671.964Z" fill="#005371" fill-rule="evenodd" fill-opacity="1" transform="matrix(1 0 0 1.00016 7.27887 -82.3318)"/><path d="M920.028 607.198C920.028 601.237 944.594 596.404 974.907 596.404 1005.22 596.404 1029.79 601.237 1029.79 607.198 1029.79 613.16 1005.22 617.993 974.907 617.993 944.594 617.993 920.028 613.16 920.028 607.198Z" fill="#6698AA" fill-rule="evenodd" fill-opacity="1" transform="matrix(1 0 0 1.00016 7.27887 -82.3318)"/></g></g></g></g></g></svg>